<?xml version="1.0" standalone="no"?>
<!DOCTYPE svg PUBLIC "-//W3C//DTD SVG 20010904//EN"
 "http://www.w3.org/TR/2001/REC-SVG-20010904/DTD/svg10.dtd">
<svg version="1.0" xmlns="http://www.w3.org/2000/svg"
 width="512.000000pt" height="512.000000pt" viewBox="0 0 512.000000 512.000000"
 preserveAspectRatio="xMidYMid meet">

<g transform="translate(0.000000,512.000000) scale(0.100000,-0.100000)"
fill="#000000" stroke="none">
<path d="M2451 5089 c-481 -25 -997 -190 -1380 -442 -524 -345 -893 -900
-1019 -1532 -11 -55 -26 -140 -33 -190 -18 -118 -17 -483 0 -600 69 -470 245
-865 565 -1265 494 -618 1047 -947 1711 -1020 235 -25 576 -8 804 41 894 193
1624 855 1901 1724 96 301 140 676 111 946 -58 536 -274 1075 -586 1464 -415
517 -1072 844 -1750 871 -66 3 -133 6 -150 7 -16 2 -95 0 -174 -4z m404 -344
c284 -32 498 -92 740 -210 593 -287 997 -852 1152 -1609 34 -168 42 -459 18
-631 -31 -223 -79 -400 -160 -590 -319 -744 -1021 -1256 -1829 -1334 -652 -64
-1236 160 -1716 655 -421 436 -643 860 -710 1361 -16 120 -8 456 14 578 87
474 304 884 637 1200 132 125 278 226 454 315 442 224 937 317 1400 265z"/>
<path d="M2515 4355 c-286 -41 -585 -134 -849 -265 l-131 -65 -34 -67 c-26
-53 -32 -74 -27 -101 4 -22 47 -88 114 -178 59 -79 149 -203 200 -276 115
-164 129 -176 200 -171 45 4 59 11 95 45 85 81 208 149 327 179 150 38 258
-18 306 -160 20 -57 15 -146 -11 -196 -51 -98 -213 -198 -390 -241 -49 -12
-107 -26 -128 -31 -48 -11 -65 -39 -69 -113 -6 -119 13 -971 23 -1002 6 -18
22 -42 36 -53 24 -18 40 -20 210 -20 351 0 513 28 554 94 17 29 19 53 19 317
l0 285 88 60 c319 216 562 518 661 823 140 428 -43 876 -432 1056 -137 63
-255 86 -472 90 -130 3 -221 0 -290 -10z m480 -245 c214 -47 375 -167 459
-343 55 -116 71 -191 63 -306 -13 -201 -123 -411 -325 -622 -96 -101 -195
-182 -339 -276 -62 -40 -117 -82 -123 -92 -6 -12 -10 -125 -10 -295 l0 -275
-52 -5 c-29 -3 -108 -8 -175 -11 l-123 -6 -2 300 c-1 166 -3 331 -3 367 l0 67
70 19 c39 10 116 41 172 68 181 88 320 245 352 398 37 179 -15 358 -138 476
-108 102 -223 142 -388 134 -137 -8 -242 -48 -390 -149 l-43 -30 -98 133
c-128 175 -145 198 -140 203 2 2 54 26 115 54 203 92 442 165 642 196 135 21
368 18 476 -5z"/>
<path d="M2357 1516 c-99 -28 -177 -112 -231 -249 -36 -91 -43 -177 -21 -252
60 -209 209 -325 415 -325 143 0 261 49 360 150 82 82 115 158 115 265 0 96
-33 162 -123 247 -71 66 -153 116 -249 149 -75 26 -203 33 -266 15z m266 -239
c113 -52 167 -111 167 -182 0 -70 -58 -137 -158 -183 -46 -21 -65 -24 -121
-20 -67 5 -100 19 -149 62 -90 79 -83 274 11 336 47 31 169 24 250 -13z"/>
</g>
</svg>
