<?xml version="1.0" encoding="UTF-8"?>
<svg width="170.54mm" height="40.786mm" version="1.1" viewBox="0 0 170.54 40.786" xmlns="http://www.w3.org/2000/svg" xmlns:cc="http://creativecommons.org/ns#" xmlns:dc="http://purl.org/dc/elements/1.1/" xmlns:rdf="http://www.w3.org/1999/02/22-rdf-syntax-ns#">
<metadata>
<rdf:RDF>
<cc:Work rdf:about="">
<dc:format>image/svg+xml</dc:format>
<dc:type rdf:resource="http://purl.org/dc/dcmitype/StillImage"/>
<dc:title/>
</cc:Work>
</rdf:RDF>
</metadata>
<g>
<g transform="translate(-20.501 -93.126)" fill="#fff" stroke-width="1.1866" style="font-variant-caps:normal;font-variant-east-asian:normal;font-variant-ligatures:normal;font-variant-numeric:normal" aria-label="tickets">
<path d="m61.791 105.85 1.6138-1.4714h1.3765l0.56958-4.6041 1.8511-1.8986h4.2719l-0.80691 6.5027h6.4078l-0.42718 3.1327-1.6138 1.5189h-4.9364l-1.1866 9.7778q-0.33226 2.8004 1.424 2.8004 0.75944 0 1.4714-0.66451 0.75944-0.71198 1.3765-3.1802l4.1295 1.3765q-0.90184 3.7023-2.658 5.411-1.7562 1.7088-4.9364 1.7088-3.4175 0-5.3161-1.7562-1.8511-1.8037-1.4714-5.1262l1.2816-10.347h-2.8479z" style="font-variant-caps:normal;font-variant-east-asian:normal;font-variant-ligatures:normal;font-variant-numeric:normal"/>
<path d="m83.007 100.58 0.66451-6.3603h5.6958l-0.66451 6.3603zm-3.7497 5.0788 1.4714-1.2816h7.547l-2.041 16.755h2.7055l-0.42719 3.465-1.424 1.1866h-7.3096l2.041-16.755h-2.9903z" style="font-variant-caps:normal;font-variant-east-asian:normal;font-variant-ligatures:normal;font-variant-numeric:normal"/>
<path d="m102.28 108.6q-1.9461 0-3.2276 1.9935-1.2341 1.9461-1.2341 5.6958 0 2.4207 0.71198 3.8921 0.75944 1.424 2.8004 1.424 1.7562 0 2.6106-1.1866 0.90184-1.2341 1.5189-3.5599l4.794 0.9493q-0.61705 3.0378-2.9428 5.7433t-6.9774 2.7055q-4.1769 0-6.5502-2.5631-2.3258-2.5631-2.3258-7.1672 0-3.0378 1.0917-5.9331 1.1392-2.8954 3.5599-4.7465 2.4682-1.8986 6.4078-1.8986 1.6138 0 3.7023 0.42719 2.0885 0.37972 3.7972 1.3765l0.23733 6.5027-4.8889 0.52212-0.28479-3.7972q-0.80691-0.28479-1.4714-0.33225-0.61704-0.0475-1.329-0.0475z" style="font-variant-caps:normal;font-variant-east-asian:normal;font-variant-ligatures:normal;font-variant-numeric:normal"/>
<path d="m113.62 94.408 1.4714-1.2816h7.3096l-2.4207 19.745h2.6106q3.3226-3.7023 3.9396-8.4962h5.8857q0.0475 2.8479-1.7088 5.6009-1.7562 2.753-4.6516 4.7465l3.465 6.4078h3.2751l-0.42719 3.465-1.424 1.1866h-4.9838l-4.7465-8.9234h-1.7088l-1.0917 8.9234h-5.8857l3.4175-28.004h-2.753z" style="font-variant-caps:normal;font-variant-east-asian:normal;font-variant-ligatures:normal;font-variant-numeric:normal"/>
<path d="m144.33 121.61q2.4207 0 3.1327-1.329 0.71197-1.3765 0.9493-2.1834l4.794 0.9493q-0.47465 2.8004-3.0378 5.0313-2.5156 2.1834-6.74 2.1834-3.7972 0-6.5027-2.2783-2.7055-2.2783-2.7055-7.3096 0-5.1262 3.0378-8.9234t8.5437-3.7972q3.4175 0 5.6009 1.6138 2.1834 1.6138 2.1834 4.2719 0 2.3733-1.6613 4.082-1.6613 1.6613-5.9806 2.5631-2.4682 0.52211-5.3161 0.8069 0.1424 2.041 0.9493 3.1802 0.80691 1.1392 2.753 1.1392zm-1.4714-8.2115q2.8479-0.52212 3.7023-1.3765t0.85437-1.8037q0-1.1866-0.75944-1.6613-0.75944-0.47466-1.6613-0.47466-1.9935 0-2.9903 1.7562-0.9493 1.7088-1.2341 3.8921 0.56958-0.0949 1.0917-0.14239 0.52211-0.0949 0.99676-0.18986z" style="font-variant-caps:normal;font-variant-east-asian:normal;font-variant-ligatures:normal;font-variant-numeric:normal"/>
<path d="m155.77 105.85 1.6138-1.4714h1.3765l0.56958-4.6041 1.8511-1.8986h4.2719l-0.80691 6.5027h6.4078l-0.42718 3.1327-1.6138 1.5189h-4.9364l-1.1866 9.7778q-0.33225 2.8004 1.424 2.8004 0.75944 0 1.4714-0.66451 0.75944-0.71198 1.3765-3.1802l4.1295 1.3765q-0.90184 3.7023-2.658 5.411-1.7562 1.7088-4.9364 1.7088-3.4175 0-5.3161-1.7562-1.8511-1.8037-1.4714-5.1262l1.2816-10.347h-2.8479z" style="font-variant-caps:normal;font-variant-east-asian:normal;font-variant-ligatures:normal;font-variant-numeric:normal"/>
<path d="m181.12 121.61q1.5189 0 2.4682-0.52212 0.94931-0.52211 0.94931-1.5189 0-1.3765-1.7088-1.8037-1.6613-0.47465-3.7023-1.0442-2.0885-0.56958-3.8447-1.7562-1.7087-1.2341-1.7087-4.1295 0-3.7972 2.9428-5.3161 2.9428-1.5664 6.3129-1.5664 1.7562 0 4.0345 0.42719 2.2783 0.42718 4.1769 1.5189l-0.0475 5.4585-4.699 0.52211-0.0949-2.658q-1.7562-0.61705-3.37-0.61705-0.9493 0-2.041 0.42719-1.0917 0.42718-1.0917 1.4714 0 0.99677 1.2341 1.3765t3.2751 0.90184q2.1359 0.56958 4.3193 1.8037 2.1834 1.2341 2.1834 4.6041 0 3.6548-2.753 5.3636-2.753 1.7088-6.5502 1.7088-2.041 0-4.8414-0.47465-2.8004-0.52212-4.794-1.6138l1.4714-5.9806 4.6041 0.52212-0.23733 2.4682q0.80691 0.28479 1.8986 0.37972 1.1392 0.0475 1.6138 0.0475z" style="font-variant-caps:normal;font-variant-east-asian:normal;font-variant-ligatures:normal;font-variant-numeric:normal"/>
</g>
<circle cx="19.377" cy="21.409" r="19.377" fill="#ffc100" stroke-width=".45111"/>
<g transform="translate(-20.69 -90.877)" fill="#fff" style="font-variant-caps:normal;font-variant-east-asian:normal;font-variant-ligatures:normal;font-variant-numeric:normal" aria-label="e">
<path d="m40.106 119.36q2.4207 0 3.1327-1.329 0.71198-1.3765 0.9493-2.1834l4.794 0.9493q-0.47465 2.8004-3.0378 5.0313-2.5156 2.1834-6.74 2.1834-3.7972 0-6.5027-2.2783-2.7055-2.2783-2.7055-7.3096 0-5.1262 3.0378-8.9234 3.0378-3.7972 8.5437-3.7972 3.4175 0 5.6009 1.6138 2.1834 1.6138 2.1834 4.2718 0 2.3733-1.6613 4.082-1.6613 1.6613-5.9806 2.5631-2.4682 0.52211-5.3161 0.8069 0.1424 2.041 0.9493 3.1802 0.80691 1.1392 2.753 1.1392zm-1.4714-8.2115q2.8479-0.52212 3.7023-1.3765 0.85437-0.85437 0.85437-1.8037 0-1.1866-0.75944-1.6613-0.75944-0.47465-1.6613-0.47465-1.9935 0-2.9903 1.7562-0.9493 1.7088-1.2341 3.8921 0.56958-0.0949 1.0917-0.14239 0.52212-0.0949 0.99677-0.18986z" fill="#fff" stroke-width="1.1866" style="font-variant-caps:normal;font-variant-east-asian:normal;font-variant-ligatures:normal;font-variant-numeric:normal"/>
</g>
</g>
</svg>
