<?xml version="1.0" standalone="no"?>
<!DOCTYPE svg PUBLIC "-//W3C//DTD SVG 20010904//EN"
 "http://www.w3.org/TR/2001/REC-SVG-20010904/DTD/svg10.dtd">
<svg version="1.0" xmlns="http://www.w3.org/2000/svg"
 width="310.000000pt" height="78.000000pt" viewBox="0 0 310.000000 78.000000"
 preserveAspectRatio="xMidYMid meet">

<g transform="translate(0.000000,78.000000) scale(0.100000,-0.100000)"
fill="#000000" stroke="none">
<path d="M495 766 c-176 -43 -355 -235 -355 -381 0 -31 6 -60 16 -74 16 -22
15 -24 -5 -44 -20 -20 -22 -20 -38 -4 -9 9 -20 38 -23 64 -3 27 -9 48 -15 48
-31 0 -86 -190 -71 -248 10 -40 37 -34 89 22 l45 48 79 5 c67 4 92 11 164 46
179 87 339 287 339 423 0 22 -5 49 -11 61 -24 44 -113 59 -214 34z m175 -36
c45 -45 8 -145 -109 -289 -49 -58 -159 -144 -234 -181 -64 -31 -157 -51 -157
-33 0 19 46 51 90 63 25 7 64 23 87 37 49 28 143 110 143 124 0 20 -24 7 -78
-41 -51 -46 -157 -108 -166 -99 -3 2 43 60 100 129 104 124 164 206 164 222 0
14 -32 22 -39 9 -31 -49 -276 -349 -283 -345 -4 3 -8 24 -8 48 0 116 155 301
299 357 66 26 165 25 191 -1z m-593 -554 l-32 -40 -3 34 c-2 18 -1 49 3 68 l6
34 29 -27 29 -28 -32 -41z"/>
<path d="M966 688 c-45 -46 -139 -164 -211 -262 l-129 -178 -23 27 c-13 14
-23 35 -23 46 0 42 -35 13 -72 -58 -44 -86 -60 -176 -34 -201 15 -15 21 -11
83 52 l67 69 111 2 c116 2 224 27 233 54 4 11 -1 12 -19 7 -73 -22 -203 -38
-240 -30 -22 5 -40 13 -41 17 0 12 335 447 372 482 l32 30 -8 -30 c-11 -49
-78 -197 -107 -240 -23 -34 -27 -36 -27 -17 0 13 10 46 21 73 22 51 20 71 -5
50 -22 -18 -58 -110 -54 -139 5 -43 39 -41 77 5 56 68 137 257 129 300 -2 10
-14 19 -27 21 -19 3 -41 -14 -105 -80z m-389 -447 l23 -29 -41 -51 c-34 -43
-59 -63 -59 -47 0 15 21 106 29 129 13 34 20 33 48 -2z"/>
<path d="M1510 750 c-191 -69 -409 -330 -410 -491 0 -91 57 -103 169 -34 81
50 86 52 77 30 -8 -22 4 -45 22 -45 9 0 39 11 67 24 27 12 65 28 83 34 l32 10
-21 -29 c-38 -54 3 -44 97 24 124 88 126 89 62 17 -32 -35 -58 -67 -58 -72 0
-20 45 -4 97 35 32 24 72 52 88 63 29 18 29 17 -7 -24 -55 -61 -47 -104 13
-72 10 6 19 9 19 6 0 -3 -38 -49 -85 -102 -83 -95 -100 -124 -70 -124 15 0 33
18 153 156 39 45 95 101 124 126 54 45 132 98 144 98 4 0 -23 -31 -59 -69 -78
-81 -86 -107 -30 -98 20 4 59 20 86 37 54 33 65 33 47 1 -12 -23 -6 -41 12
-41 6 0 33 14 60 30 l48 30 -6 -24 c-10 -43 3 -48 57 -21 48 25 49 25 49 5 0
-27 25 -25 79 5 23 14 45 25 46 25 2 0 5 -10 7 -22 5 -36 46 -34 124 8 l69 36
-27 -29 c-32 -33 -35 -43 -12 -43 9 0 50 32 91 70 42 39 77 69 80 67 2 -2 -1
-17 -7 -32 -12 -32 2 -57 27 -48 12 5 15 2 10 -10 -11 -29 29 -60 66 -53 45 9
167 84 167 102 0 13 -6 13 -36 -5 -19 -12 -37 -21 -39 -21 -11 0 39 98 62 122
15 15 24 30 21 34 -7 6 -30 -6 -152 -81 -49 -30 -91 -53 -93 -51 -9 9 27 75
46 86 12 6 21 18 21 26 0 19 -31 11 -71 -17 -26 -19 -27 -19 -33 4 -5 21 -8
19 -49 -23 -42 -44 -154 -118 -209 -139 -22 -8 -28 -8 -28 3 0 18 25 38 98 76
84 44 123 93 87 107 -29 10 -104 -28 -170 -87 -60 -55 -122 -96 -131 -88 -2 2
36 49 84 103 85 96 89 100 132 103 117 6 156 32 49 32 l-61 0 36 45 c36 43 40
65 11 65 -7 0 -36 -25 -63 -56 l-50 -56 -53 4 c-34 2 -54 -1 -56 -9 -3 -8 12
-13 43 -15 l47 -3 -69 -84 c-41 -49 -87 -94 -114 -109 l-45 -26 25 30 c13 16
47 52 73 81 44 45 54 73 27 73 -5 0 -35 -23 -67 -51 -65 -57 -153 -122 -153
-113 0 3 23 31 50 63 28 32 50 63 50 69 0 27 -24 21 -64 -16 -40 -37 -123 -94
-176 -122 -19 -9 -15 -2 16 31 107 114 97 169 -17 99 -27 -16 -49 -28 -49 -25
0 2 27 34 60 71 32 37 57 71 54 76 -13 21 -40 0 -128 -99 -52 -60 -109 -117
-128 -127 -31 -18 -30 -17 15 32 45 49 64 102 36 102 -6 0 -40 -20 -75 -45
-72 -52 -84 -56 -55 -19 12 15 21 33 21 40 0 30 -25 23 -98 -27 l-77 -53 28
36 c15 20 27 44 27 52 0 21 -29 21 -37 1 -5 -15 -124 -105 -137 -105 -4 0 0
10 8 22 19 27 21 84 4 90 -26 9 -76 -13 -122 -53 -67 -59 -204 -139 -238 -139
-25 0 -28 3 -28 35 0 135 206 397 365 465 51 21 108 31 125 20 20 -12 1 -49
-57 -111 -67 -71 -135 -119 -160 -113 -14 4 -26 -1 -36 -17 -20 -28 -14 -39
22 -39 34 0 88 35 154 98 89 86 133 166 107 197 -18 21 -93 18 -160 -5z m1130
-385 c-13 -14 -27 -25 -32 -25 -9 0 42 49 51 50 3 0 -6 -11 -19 -25z m-1175
-48 c-8 -19 -28 -45 -44 -56 -37 -27 -45 -26 -30 2 13 24 81 99 86 93 2 -1 -3
-19 -12 -39z m1501 -25 c-25 -50 -54 -70 -78 -56 -7 5 -4 10 11 16 17 6 22 14
18 28 -4 16 4 26 31 44 21 13 38 22 40 21 2 -2 -8 -26 -22 -53z"/>
</g>
</svg>
