<?xml version="1.0" encoding="UTF-8" standalone="no"?>
<svg
   xmlns:dc="http://purl.org/dc/elements/1.1/"
   xmlns:cc="http://creativecommons.org/ns#"
   xmlns:rdf="http://www.w3.org/1999/02/22-rdf-syntax-ns#"
   xmlns:svg="http://www.w3.org/2000/svg"
   xmlns="http://www.w3.org/2000/svg"
   xmlns:sodipodi="http://sodipodi.sourceforge.net/DTD/sodipodi-0.dtd"
   xmlns:inkscape="http://www.inkscape.org/namespaces/inkscape"
   width="170.536mm"
   height="40.785999mm"
   viewBox="0 0 170.536 40.785995"
   version="1.1"
   id="svg8"
   inkscape:version="1.0.2-2 (e86c870879, 2021-01-15)"
   sodipodi:docname="disegno.svg">
  <defs
     id="defs2">
    <inkscape:perspective
       sodipodi:type="inkscape:persp3d"
       inkscape:vp_x="0 : -107.71399 : 1"
       inkscape:vp_y="0 : 999.99986 : 0"
       inkscape:vp_z="210.00002 : -107.71399 : 1"
       inkscape:persp3d-origin="105.00001 : -157.21399 : 1"
       id="perspective978" />
  </defs>
  <sodipodi:namedview
     id="base"
     pagecolor="#ffffff"
     bordercolor="#666666"
     borderopacity="1.0"
     inkscape:pageopacity="0.0"
     inkscape:pageshadow="2"
     inkscape:zoom="1.4"
     inkscape:cx="278.81285"
     inkscape:cy="184.80838"
     inkscape:document-units="mm"
     inkscape:current-layer="layer1"
     inkscape:document-rotation="0"
     showgrid="false"
     inkscape:window-width="1920"
     inkscape:window-height="1001"
     inkscape:window-x="-9"
     inkscape:window-y="-9"
     inkscape:window-maximized="1"
     units="mm" />
  <metadata
     id="metadata5">
    <rdf:RDF>
      <cc:Work
         rdf:about="">
        <dc:format>image/svg+xml</dc:format>
        <dc:type
           rdf:resource="http://purl.org/dc/dcmitype/StillImage" />
        <dc:title />
      </cc:Work>
    </rdf:RDF>
  </metadata>

  <g
     inkscape:label="Livello 1"
     inkscape:groupmode="layer"
     id="layer1">
    <g
       aria-label="tickets"
       id="text835"
       style="font-style:italic;font-variant:normal;font-weight:bold;font-stretch:normal;font-size:47.4651px;line-height:1.25;font-family:'Zilla Slab';-inkscape-font-specification:'Zilla Slab, Bold Italic';font-variant-ligatures:normal;font-variant-caps:normal;font-variant-numeric:normal;font-variant-east-asian:normal;fill:#fff;fill-opacity:1;stroke:none;stroke-width:1.18663"
       transform="translate(-20.501471,-93.126398)">
      <path
         d="m 61.790655,105.84705 1.613814,-1.47142 h 1.376488 l 0.569581,-4.604118 1.851139,-1.898604 h 4.271859 l -0.806907,6.502722 h 6.407788 l -0.427185,3.13269 -1.613814,1.51889 h -4.93637 l -1.186628,9.77781 q -0.332255,2.80044 1.423953,2.80044 0.759442,0 1.471418,-0.66451 0.759442,-0.71198 1.376488,-3.18017 l 4.129464,1.37649 q -0.901837,3.70228 -2.658046,5.41102 -1.756208,1.70875 -4.93637,1.70875 -3.417487,0 -5.316091,-1.75621 -1.851139,-1.80367 -1.471418,-5.12623 l 1.281558,-10.34739 H 61.36347 Z"
         style="font-style:italic;font-variant:normal;font-weight:bold;font-stretch:normal;font-size:47.4651px;font-family:'Zilla Slab';-inkscape-font-specification:'Zilla Slab, Bold Italic';font-variant-ligatures:normal;font-variant-caps:normal;font-variant-numeric:normal;font-variant-east-asian:normal;stroke-width:1.18663;fill:#fff;fill-opacity:1"
         id="path836" />
      <path
         d="m 83.007493,100.57842 0.664511,-6.360324 h 5.695812 l -0.664511,6.360324 z m -3.749743,5.07876 1.471418,-1.28155 h 7.546951 l -2.040999,16.75518 h 2.70551 l -0.427186,3.46495 -1.423953,1.18663 h -7.309625 l 2.040999,-16.75518 h -2.990301 z"
         style="font-style:italic;font-variant:normal;font-weight:bold;font-stretch:normal;font-size:47.4651px;font-family:'Zilla Slab';-inkscape-font-specification:'Zilla Slab, Bold Italic';font-variant-ligatures:normal;font-variant-caps:normal;font-variant-numeric:normal;font-variant-east-asian:normal;stroke-width:1.18663;fill:#fff;fill-opacity:1"
         id="path838" />
      <path
         d="m 102.27824,108.60002 q -1.94607,0 -3.227627,1.99353 -1.234092,1.94607 -1.234092,5.69582 0,2.42072 0.711976,3.89214 0.759442,1.42395 2.800443,1.42395 1.75621,0 2.61058,-1.18663 0.90184,-1.23409 1.51888,-3.55988 l 4.79398,0.9493 q -0.61705,3.03777 -2.94284,5.74328 -2.32579,2.70551 -6.97737,2.70551 -4.176928,0 -6.550183,-2.56312 -2.32579,-2.56311 -2.32579,-7.16723 0,-3.03776 1.091698,-5.93314 1.139162,-2.89537 3.559882,-4.7465 2.468185,-1.89861 6.407793,-1.89861 1.61381,0 3.70227,0.42719 2.08847,0.37972 3.79721,1.37648 l 0.23733,6.50272 -4.88891,0.52212 -0.28479,-3.79721 q -0.80691,-0.28479 -1.47142,-0.33225 -0.61704,-0.0475 -1.32902,-0.0475 z"
         style="font-style:italic;font-variant:normal;font-weight:bold;font-stretch:normal;font-size:47.4651px;font-family:'Zilla Slab';-inkscape-font-specification:'Zilla Slab, Bold Italic';font-variant-ligatures:normal;font-variant-caps:normal;font-variant-numeric:normal;font-variant-east-asian:normal;stroke-width:1.18663;fill:#fff;fill-opacity:1"
         id="path840" />
      <path
         d="m 113.62236,94.407956 1.47142,-1.281558 h 7.30962 l -2.42072,19.745482 h 2.61058 q 3.32256,-3.70228 3.93961,-8.49625 h 5.88567 q 0.0475,2.8479 -1.70875,5.60088 -1.7562,2.75297 -4.65157,4.74651 l 3.46495,6.40779 h 3.27509 l -0.42719,3.46495 -1.42395,1.18663 h -4.98384 l -4.7465,-8.92344 h -1.70875 l -1.0917,8.92344 h -5.88567 l 3.41749,-28.004412 h -2.75298 z"
         style="font-style:italic;font-variant:normal;font-weight:bold;font-stretch:normal;font-size:47.4651px;font-family:'Zilla Slab';-inkscape-font-specification:'Zilla Slab, Bold Italic';font-variant-ligatures:normal;font-variant-caps:normal;font-variant-numeric:normal;font-variant-east-asian:normal;stroke-width:1.18663;fill:#fff;fill-opacity:1"
         id="path842" />
      <path
         d="m 144.33216,121.60546 q 2.42072,0 3.1327,-1.32902 0.71197,-1.37649 0.9493,-2.1834 l 4.79397,0.9493 q -0.47465,2.80044 -3.03776,5.0313 -2.51565,2.1834 -6.74005,2.1834 -3.7972,0 -6.50272,-2.27833 -2.70551,-2.27832 -2.70551,-7.30962 0,-5.12623 3.03777,-8.92344 3.03777,-3.79721 8.54372,-3.79721 3.41749,0 5.60088,1.61381 2.18339,1.61382 2.18339,4.27186 0,2.37326 -1.66127,4.082 -1.66128,1.66128 -5.98061,2.56312 -2.46818,0.52211 -5.31609,0.8069 0.1424,2.041 0.9493,3.18017 0.80691,1.13916 2.75298,1.13916 z m -1.47142,-8.21146 q 2.84791,-0.52212 3.70228,-1.37649 0.85437,-0.85437 0.85437,-1.80368 0,-1.18662 -0.75944,-1.66127 -0.75944,-0.47466 -1.66128,-0.47466 -1.99353,0 -2.9903,1.75621 -0.9493,1.70875 -1.23409,3.89214 0.56958,-0.0949 1.0917,-0.14239 0.52211,-0.0949 0.99676,-0.18986 z"
         style="font-style:italic;font-variant:normal;font-weight:bold;font-stretch:normal;font-size:47.4651px;font-family:'Zilla Slab';-inkscape-font-specification:'Zilla Slab, Bold Italic';font-variant-ligatures:normal;font-variant-caps:normal;font-variant-numeric:normal;font-variant-east-asian:normal;stroke-width:1.18663;fill:#fff;fill-opacity:1"
         id="path844" />
      <path
         d="m 155.77117,105.84705 1.61381,-1.47142 h 1.37649 l 0.56958,-4.604118 1.85114,-1.898604 h 4.27186 l -0.80691,6.502722 h 6.40779 l -0.42718,3.13269 -1.61382,1.51889 h -4.93637 l -1.18663,9.77781 q -0.33225,2.80044 1.42396,2.80044 0.75944,0 1.47142,-0.66451 0.75944,-0.71198 1.37648,-3.18017 l 4.12947,1.37649 q -0.90184,3.70228 -2.65805,5.41102 -1.75621,1.70875 -4.93637,1.70875 -3.41749,0 -5.31609,-1.75621 -1.85114,-1.80367 -1.47142,-5.12623 l 1.28156,-10.34739 h -2.84791 z"
         style="font-style:italic;font-variant:normal;font-weight:bold;font-stretch:normal;font-size:47.4651px;font-family:'Zilla Slab';-inkscape-font-specification:'Zilla Slab, Bold Italic';font-variant-ligatures:normal;font-variant-caps:normal;font-variant-numeric:normal;font-variant-east-asian:normal;stroke-width:1.18663;fill:#fff;fill-opacity:1"
         id="path846" />
      <path
         d="m 181.11747,121.60546 q 1.51888,0 2.46818,-0.52212 0.94931,-0.52211 0.94931,-1.51888 0,-1.37649 -1.70875,-1.80368 -1.66128,-0.47465 -3.70228,-1.04423 -2.08846,-0.56958 -3.84467,-1.75621 -1.70874,-1.23409 -1.70874,-4.12946 0,-3.79721 2.94283,-5.31609 2.94284,-1.56635 6.31286,-1.56635 1.75621,0 4.03454,0.42719 2.27832,0.42718 4.17692,1.51888 l -0.0475,5.45849 -4.69905,0.52211 -0.0949,-2.65804 q -1.7562,-0.61705 -3.37002,-0.61705 -0.9493,0 -2.041,0.42719 -1.09169,0.42718 -1.09169,1.47141 0,0.99677 1.23409,1.37649 1.23409,0.37972 3.27509,0.90184 2.13593,0.56958 4.31932,1.80367 2.1834,1.2341 2.1834,4.60412 0,3.65481 -2.75298,5.36355 -2.75297,1.70875 -6.55018,1.70875 -2.041,0 -4.84144,-0.47465 -2.80044,-0.52212 -4.79398,-1.61382 l 1.47142,-5.9806 4.60412,0.52212 -0.23733,2.46818 q 0.80691,0.28479 1.89861,0.37972 1.13916,0.0475 1.61381,0.0475 z"
         style="font-style:italic;font-variant:normal;font-weight:bold;font-stretch:normal;font-size:47.4651px;font-family:'Zilla Slab';-inkscape-font-specification:'Zilla Slab, Bold Italic';font-variant-ligatures:normal;font-variant-caps:normal;font-variant-numeric:normal;font-variant-east-asian:normal;stroke-width:1.18663;fill:#fff;fill-opacity:1"
         id="path848" />
    </g>
    <circle
       style="fill:#ffc100;stroke-width:0.45111458;stroke-miterlimit:4;stroke-dasharray:none;fill-opacity:1"
       id="path837"
       cx="19.377041"
       cy="21.409393"
       r="19.377041" />
    <g
       aria-label="e"
       id="text835-6"
       style="font-style:italic;font-variant:normal;font-weight:bold;font-stretch:normal;font-size:47.4651px;line-height:1.25;font-family:'Zilla Slab';-inkscape-font-specification:'Zilla Slab, Bold Italic';font-variant-ligatures:normal;font-variant-caps:normal;font-variant-numeric:normal;font-variant-east-asian:normal;fill:#ffffff;fill-opacity:1;stroke:none;stroke-width:1.18663"
       transform="translate(-20.690459,-90.877037)">
      <path
         d="m 40.10618,119.3561 q 2.42072,0 3.132696,-1.32902 0.711977,-1.37649 0.949302,-2.1834 l 4.793975,0.9493 q -0.474651,2.80044 -3.037766,5.0313 -2.51565,2.1834 -6.740044,2.1834 -3.797208,0 -6.502719,-2.27833 -2.705511,-2.27832 -2.705511,-7.30962 0,-5.12623 3.037767,-8.92344 3.037766,-3.79721 8.543718,-3.79721 3.417487,0 5.600881,1.61382 2.183395,1.61381 2.183395,4.27185 0,2.37326 -1.661278,4.082 -1.661279,1.66128 -5.980603,2.56312 -2.468185,0.52211 -5.316091,0.8069 0.142395,2.041 0.949302,3.18017 0.806907,1.13916 2.752976,1.13916 z m -1.471418,-8.21146 q 2.847906,-0.52212 3.702277,-1.37649 0.854372,-0.85437 0.854372,-1.80367 0,-1.18663 -0.759441,-1.66128 -0.759442,-0.47465 -1.661279,-0.47465 -1.993534,0 -2.990301,1.7562 -0.949302,1.70875 -1.234093,3.89214 0.569581,-0.0949 1.091697,-0.14239 0.522117,-0.0949 0.996768,-0.18986 z"
         style="font-style:italic;font-variant:normal;font-weight:bold;font-stretch:normal;font-size:47.4651px;font-family:'Zilla Slab';-inkscape-font-specification:'Zilla Slab, Bold Italic';font-variant-ligatures:normal;font-variant-caps:normal;font-variant-numeric:normal;font-variant-east-asian:normal;fill:#ffffff;stroke-width:1.18663;fill-opacity:1"
         id="path851" />
    </g>
  </g>
</svg>
